<svg width="100%" height="100%" viewBox="0 0 96 37" fill="none" xmlns="http://www.w3.org/2000/svg">
  <defs>
    <linearGradient id="brush-gradient" x1="0%" y1="0%" x2="100%" y2="0%">
      <stop offset="0%" style="stop-color: #a0aec0;" />
      <stop offset="100%" style="stop-color: #d6bcfa;" />
    </linearGradient>
  </defs>
  <path d="M93.2 10C101.5 8.8 85.7 6.8 78.5 6.1C71.3 5.4 66.2 4.1 81.2 4.6C96.2 5 94.7 2.9 71.9 0.999997C49 -1 11.4 0.599996 11.4 0.599996C-4.70001 0.499996 2.19999 15.1 0.999994 19.4C-0.200006 23.7 1.49999 27.1 3.09999 29.8C4.69999 32.4 2.69999 33 8.79999 35.3C14.9 37.6 27.2 33.7 63.9 33C98.8 32.3 82.4 29.5 74.4 28.7C66.4 27.9 69.9 27.2 83.3 26.5C96.7 25.9 81.5 24.4 82.8 22.8C84.2 21.2 100.7 21.2 88.1 19.3C85.7 18.9 93.3 16.6 87.3 16.2C81.3 15.8 83.3 14.9 91 14.6C98.6 14.3 93.5 12.3 89.2 12C85 11.8 84.9 11.2 93.2 10Z" fill="url(#brush-gradient)"/>
</svg>
