<svg width="424" height="394" viewBox="0 0 424 394" fill="none" xmlns="http://www.w3.org/2000/svg">
<path d="M212 354C125.4 354 55 283.6 55 197C55 110.4 125.4 40 212 40C298.6 40 369 110.4 369 197C369 283.6 298.6 354 212 354ZM212 43.9C127.6 43.9 58.9 112.6 58.9 197C58.9 281.4 127.6 350.1 212 350.1C296.4 350.1 365.1 281.4 365.1 197C365.1 112.6 296.4 43.9 212 43.9Z" fill="url(#paint0_linear)"/>
<path d="M284.3 273.1C280.5 273.1 278.8 271.4 276.4 269C273.7 266.3 270.2 262.8 263.7 262.8C257.2 262.8 253.8 266.2 251 269C248.6 271.4 246.9 273.1 243.1 273.1C239.3 273.1 237.6 271.4 235.2 269C234 267.8 232.6 266.4 230.9 265.4L232.4 262.8L240.3 250.1L248.4 237.2L252.2 231.4C252.2 231.4 241.6 231.4 231.3 224.5C226 221.1 220.8 215.8 217.2 208V191C217.2 190.7 217.2 190.3 217 190C227.6 190.5 239.5 194.5 251.8 204.6C251.8 204.6 292.1 175.3 251.8 142.2H217V132.6H221.5C224.4 132.6 226.6 130.4 226.6 127.5V125.3C226.6 122.4 224.4 120.2 221.5 120.2H217V117.6C217 115.7 215.5 114.2 213.6 114.2C211.7 114.2 210.2 115.7 210.2 117.6V120.3H205.7C202.8 120.3 200.6 122.5 200.6 125.4V127.5C200.6 130.4 202.8 132.6 205.7 132.6H210.2V142.2H175.6C135.3 175.3 175.6 204.6 175.6 204.6C175.6 204.6 189.8 191.4 210.4 190C210.2 190.3 210.2 190.7 210.2 191V208C206.6 215.9 201.5 221 196.1 224.6C185.8 231.5 175.2 231.5 175.2 231.5L178.8 237.3L194.9 262.8L201.2 273.1C197.8 272.9 196.1 271.4 193.7 269C191 266.3 187.5 262.8 181 262.8C174.5 262.8 171.1 266.2 168.3 269C165.9 271.4 164.2 273.1 160.4 273.1C156.6 273.1 154.9 271.4 152.5 269C149.8 266.3 146.3 262.8 139.8 262.8C137.9 262.8 136.4 264.3 136.4 266.2C136.4 268.1 137.9 269.6 139.8 269.6C143.6 269.6 145.3 271.3 147.7 273.7C150.4 276.4 153.9 279.9 160.4 279.9C166.9 279.9 170.3 276.5 173.1 273.7C175.5 271.3 177.2 269.6 181 269.6C184.8 269.6 186.5 271.3 188.9 273.7C191.6 276.4 195.1 279.9 201.6 279.9C208.1 279.9 211.5 276.5 214.3 273.7C214.8 273.2 215.3 272.7 215.8 272.3L223.7 269.7C226.4 270 228 271.6 230 273.6C232.7 276.3 236.2 279.8 242.7 279.8C249.2 279.8 252.6 276.4 255.4 273.6C257.8 271.2 259.5 269.5 263.3 269.5C267.1 269.5 268.8 271.2 271.2 273.6C273.9 276.3 277.4 279.8 283.9 279.8C285.8 279.8 287.3 278.3 287.3 276.4C287.3 274.5 286.2 273.1 284.3 273.1ZM213.7 150.9C217.6 150.9 220.7 154 220.7 157.9C220.7 161.8 217.6 164.9 213.7 164.9C209.8 164.9 206.7 161.8 206.7 157.9C206.7 154 209.9 150.9 213.7 150.9ZM202.4 183.5C201.9 183.8 201.2 184 200.7 184C199.5 184 198.5 183.5 197.8 182.3C196.8 180.8 197.3 178.5 199 177.7L207.2 172.7L199 167.7C197.3 166.5 196.8 164.4 197.8 162.7C198.8 161.2 200.9 160.6 202.4 161.5L213.7 168.4L225 161.5C226.5 160.5 228.8 161 229.6 162.7C230.6 164.2 230.1 166.5 228.4 167.3L220.2 172.3L228.4 177.3C229.9 178.3 230.5 180.4 229.6 181.9C228.9 182.9 227.9 183.6 226.7 183.6C226 183.6 225.5 183.4 225 183.1L213.7 176.2L202.4 183.5Z" fill="url(#paint1_linear)"/>
<defs>
<linearGradient id="paint0_linear" x1="101.036" y1="307.964" x2="322.964" y2="86.0363" gradientUnits="userSpaceOnUse">
<stop stop-color="#0092D5"/>
<stop offset="0.3952" stop-color="#587ABD"/>
<stop offset="1" stop-color="#E95296"/>
</linearGradient>
<linearGradient id="paint1_linear" x1="155.121" y1="286.207" x2="275.821" y2="165.508" gradientUnits="userSpaceOnUse">
<stop stop-color="#0092D5"/>
<stop offset="0.45" stop-color="#587ABD"/>
<stop offset="1" stop-color="#E95296"/>
</linearGradient>
</defs>
</svg>
