<svg version="1.1" id="Layer_1" xmlns="http://www.w3.org/2000/svg" xmlns:xlink="http://www.w3.org/1999/xlink" x="0px" y="0px"
	 width="100%" viewBox="0 0 1920 1080" enable-background="new 0 0 1920 1080" xml:space="preserve">
<path fill="#000000" opacity="1.000000" stroke="none" 
	d="
M1112.000000,1081.000000 
	C742.833374,1081.000000 374.166809,1080.993408 5.500223,1081.093018 
	C1.751674,1081.093994 0.905862,1080.249878 0.906912,1076.500244 
	C1.006865,719.500305 1.006887,362.500336 0.907020,5.500417 
	C0.905972,1.752268 1.749634,0.906623 5.499621,0.907192 
	C642.499512,1.003862 1279.499390,1.003851 1916.499268,0.907397 
	C1920.246460,0.906829 1921.094238,1.748358 1921.093140,5.499290 
	C1920.993164,362.499176 1920.993042,719.499084 1921.092773,1076.499023 
	C1921.093750,1080.245605 1920.252563,1081.094849 1916.500977,1081.093384 
	C1648.500610,1080.990723 1380.500366,1081.000000 1112.000000,1081.000000 
z"/>
<path fill="#FBFBFB" opacity="1.000000" stroke="none" 
	d="
M532.700989,489.702148 
	C536.368347,479.195007 539.879578,469.067963 544.247986,459.223907 
	C551.621399,442.607880 561.040161,427.229919 572.492493,413.226562 
	C580.260681,403.727966 589.097778,395.275787 598.687805,387.320374 
	C619.292480,370.227814 642.066833,356.890778 666.060364,345.700897 
	C688.174133,335.387695 711.358276,327.769226 735.410706,322.859558 
	C748.764893,320.133698 762.116638,317.364105 775.656433,316.180603 
	C785.745789,315.298737 795.978394,315.800262 806.137939,316.054291 
	C814.734131,316.269226 822.958679,313.915710 831.341309,312.805267 
	C844.935547,311.004456 858.343506,307.885895 871.807861,305.188629 
	C892.671082,301.009155 913.422302,296.396820 933.968689,290.934723 
	C965.839722,282.462158 997.770874,274.148071 1029.369385,264.735535 
	C1063.879150,254.455795 1098.519409,244.577957 1132.718018,233.237305 
	C1141.053955,230.473038 1149.596802,228.166245 1157.948975,225.377335 
	C1161.161743,224.304565 1164.282715,223.935089 1167.555420,223.998199 
	C1174.250610,224.127289 1178.373047,228.721146 1179.122925,235.290970 
	C1180.057129,243.476349 1175.966064,249.798965 1172.215210,256.120697 
	C1165.530518,267.387115 1156.517822,276.839722 1146.846436,285.577576 
	C1134.986328,296.292908 1122.646851,306.452545 1109.838989,316.032349 
	C1106.839233,318.276062 1104.015625,320.758270 1100.980957,322.950836 
	C1100.011719,323.651093 1098.635498,324.234558 1099.237305,325.409607 
	C1099.812866,326.533356 1101.075562,325.671570 1102.196045,325.425476 
	C1122.315186,321.007019 1141.927856,315.015686 1161.109985,307.478699 
	C1183.223755,298.789825 1204.944336,289.258270 1226.385254,279.019104 
	C1254.716919,265.489288 1281.158325,248.627106 1308.472412,233.302521 
	C1329.496338,221.506912 1349.505371,208.197449 1369.306519,194.507156 
	C1374.470581,190.936829 1380.614014,187.809601 1386.935425,189.635468 
	C1397.936890,192.813095 1398.550659,199.955460 1396.399170,210.958801 
	C1391.842163,234.266006 1380.648193,254.988342 1369.731323,275.795410 
	C1356.993164,300.073669 1341.847778,322.790314 1326.318604,345.326904 
	C1309.046265,370.393097 1291.173828,394.982758 1271.975586,418.607178 
	C1271.091919,419.694611 1270.530518,421.044067 1269.367065,423.051178 
	C1277.269165,421.751892 1284.374023,420.510193 1291.503174,419.429077 
	C1301.657593,417.889130 1311.833618,416.492828 1321.993408,414.987091 
	C1331.034546,413.647156 1339.974854,411.648926 1349.228027,411.939972 
	C1357.772095,412.208649 1362.802856,419.041168 1361.320557,427.486725 
	C1359.632324,437.106079 1352.981567,443.557892 1347.587402,450.692291 
	C1332.472046,470.684235 1316.986328,490.401459 1301.381592,510.015991 
	C1292.828369,520.767090 1283.560913,530.947815 1274.932495,541.641418 
	C1260.916382,559.012268 1245.873779,575.483582 1231.161987,592.244995 
	C1227.902222,595.958923 1224.490356,599.554321 1221.128296,603.170837 
	C1196.537964,629.621155 1171.235229,655.421753 1144.917236,680.118164 
	C1114.800415,708.379456 1083.145508,734.873535 1049.687744,759.266602 
	C1026.323730,776.300598 1002.334045,792.294556 977.299988,806.578613 
	C953.733948,820.025024 929.501038,832.345032 904.070801,842.156799 
	C895.145630,845.600403 886.320557,849.048279 876.957336,851.129150 
	C874.332275,851.712585 872.157349,853.575562 870.914307,856.401978 
	C867.420715,864.345825 861.562439,869.221924 853.259644,872.600403 
	C837.261719,879.110107 821.033936,884.681824 804.296448,888.802551 
	C787.068359,893.044067 769.395691,893.075989 752.000671,891.714050 
	C732.085632,890.154907 714.093689,882.320129 699.819397,867.846558 
	C693.086914,861.020020 686.812988,853.397522 686.046204,843.146301 
	C685.135681,830.973022 689.536194,828.809631 699.348145,826.191223 
	C703.063049,825.199768 703.106689,824.026672 702.541931,820.794495 
	C700.771851,810.663330 699.443970,800.453857 698.011169,790.265320 
	C697.485962,786.530884 696.849243,782.829285 696.873413,778.996826 
	C696.889526,776.434265 695.757446,774.643982 692.324951,773.817505 
	C678.126526,770.399048 664.085938,766.324219 649.989807,762.481567 
	C647.213257,761.724670 644.289978,761.735046 641.623108,760.277893 
	C639.247253,758.979675 637.924561,761.327209 636.843689,762.759827 
	C631.304871,770.101135 626.309631,777.682373 623.834351,786.805054 
	C622.618103,791.287598 621.534729,796.338013 616.820007,799.040344 
	C609.211426,803.401367 602.175415,801.192749 596.022217,796.359680 
	C576.303894,780.871765 559.291138,763.059509 548.533569,739.926819 
	C539.459351,720.414062 537.170715,700.111633 539.910828,678.930908 
	C542.180481,661.386658 548.610840,645.368896 556.908875,629.989197 
	C557.915283,628.124023 557.527161,627.397705 556.516296,625.841736 
	C547.839966,612.487427 540.414368,598.336243 538.369324,582.458740 
	C536.968689,571.585144 536.880798,560.276978 540.496765,549.516602 
	C541.114746,547.677673 541.294495,546.349060 539.737183,545.155579 
	C535.887024,542.204956 533.780090,537.632751 530.059021,534.623108 
	C524.542542,530.161316 524.130920,523.960938 525.252258,518.066284 
	C527.051880,508.606323 529.992981,499.363556 532.700989,489.702148 
z"/>
<path fill="#020101" opacity="1.000000" stroke="none" 
	d="
M1164.741821,238.715759 
	C1160.590698,249.220718 1153.394897,257.495209 1145.940308,265.482117 
	C1122.291992,290.819366 1094.452271,310.999634 1065.699829,330.013062 
	C1059.342407,334.216980 1052.853638,338.222382 1045.481323,342.920868 
	C1054.186035,344.217010 1061.937622,344.751495 1069.793579,344.302277 
	C1097.052856,342.743591 1123.158813,336.026672 1148.886353,327.252106 
	C1188.895752,313.606537 1226.858032,295.459229 1264.052124,275.588501 
	C1304.509155,253.974564 1343.687988,230.231262 1381.682251,204.533173 
	C1381.940186,204.358795 1382.283569,204.310913 1382.939819,204.079712 
	C1381.605347,213.436661 1378.606323,222.137909 1375.286865,230.683762 
	C1366.418213,253.514999 1354.374023,274.743835 1341.498535,295.481262 
	C1316.836914,335.201569 1289.246582,372.859802 1260.232544,409.485565 
	C1251.663574,420.302551 1242.821533,430.903168 1234.121094,441.616455 
	C1233.735596,442.091248 1233.515747,442.700623 1232.809204,444.000793 
	C1270.964966,437.823761 1308.392090,431.764679 1346.510742,425.593628 
	C1344.320923,431.189575 1340.522705,434.923523 1337.452271,439.011169 
	C1304.693481,482.625702 1270.641357,525.194885 1234.414062,566.004333 
	C1201.048584,603.589905 1166.226440,639.742004 1129.179688,673.722656 
	C1083.506104,715.616272 1035.220337,754.122681 982.206787,786.436218 
	C951.690857,805.036743 920.072510,821.430542 886.189880,833.119568 
	C880.078186,835.228027 873.918274,837.294373 867.637695,838.772400 
	C864.678650,839.468811 862.793945,840.764160 861.637329,843.304993 
	C857.455872,852.490784 850.713196,857.979004 840.982788,861.624451 
	C814.813965,871.428406 788.444397,879.711121 760.118164,877.934326 
	C736.473267,876.451233 716.202881,867.957458 702.821655,847.077087 
	C699.392212,841.725708 699.440796,841.717529 705.230530,839.808655 
	C707.901794,838.928040 710.478455,837.546143 713.212036,837.115295 
	C718.287842,836.315369 719.563660,833.651062 718.801331,828.862183 
	C715.588989,808.681030 712.493530,788.480225 709.542725,768.259277 
	C708.972229,764.349976 707.731567,762.671570 703.403442,761.620056 
	C681.812317,756.374451 660.365479,750.525085 638.924805,744.679565 
	C635.588135,743.769836 633.603760,744.307434 631.204590,746.881042 
	C620.597534,758.259460 612.967834,771.247986 608.592407,786.643127 
	C602.729553,783.242737 597.922913,778.698669 593.106201,774.237732 
	C577.426025,759.715759 564.554443,743.269287 557.790405,722.590942 
	C550.955444,701.695679 552.226868,681.046021 559.248474,660.535278 
	C562.922058,649.804321 568.009766,639.725525 574.365417,630.338379 
	C576.064575,627.828735 575.960571,626.312378 574.022522,623.879395 
	C562.884766,609.896667 554.775574,594.478149 552.744141,576.377625 
	C551.582031,566.022705 553.339355,556.151550 557.977417,546.866028 
	C559.344849,544.128479 559.468323,542.432312 556.875854,540.219055 
	C551.696289,535.797058 547.069092,530.730713 541.924072,526.264099 
	C539.967163,524.565186 539.531433,522.989685 539.927246,520.674744 
	C547.644409,475.535339 567.283752,436.707001 600.759521,405.103546 
	C635.856140,371.969971 678.258850,352.709198 724.143799,340.225250 
	C742.091370,335.342255 760.423401,332.099243 778.960510,330.232422 
	C781.771301,329.949371 784.620544,329.738983 787.436096,329.861359 
	C803.979553,330.580170 820.291016,328.651917 836.616577,326.214844 
	C876.885986,320.203400 916.310730,310.457428 955.662109,300.241364 
	C986.633606,292.200836 1017.381836,283.415344 1048.096924,274.464172 
	C1087.100586,263.097504 1125.813599,250.818115 1164.741821,238.715759 
z"/>
<path fill="#020101" opacity="1.000000" stroke="none" 
	d="
M1165.075073,239.048050 
	C1165.065796,238.853729 1165.007935,238.641541 1164.997925,238.427139 
	C1164.996338,238.393387 1165.213013,238.349533 1165.328857,238.310333 
	C1165.381714,238.499130 1165.434570,238.687927 1165.234375,238.930542 
	C1164.981445,238.984390 1165.042114,239.029465 1165.075073,239.048050 
z"/>
<path fill="#AE0000" opacity="1.000000" stroke="none" 
	d="
M1132.147461,490.559601 
	C1128.791138,494.001801 1125.322266,496.749451 1121.626709,499.572723 
	C1127.002075,500.173645 1132.035645,498.336029 1137.137451,497.333923 
	C1154.490601,493.925476 1171.813477,490.362183 1189.576660,486.819702 
	C1191.249146,491.264282 1189.236816,495.181549 1187.670288,499.090027 
	C1181.483521,514.526123 1174.335327,529.484375 1164.833740,543.648926 
	C1158.734375,550.071472 1153.971069,557.123230 1148.313965,563.448242 
	C1135.652466,577.604553 1122.443848,591.177551 1108.515259,604.112610 
	C1095.560913,616.142883 1082.231323,627.676147 1068.070801,638.231323 
	C1044.998169,655.429565 1020.488953,670.114014 993.386719,680.162048 
	C991.800842,680.750000 990.231140,681.215820 988.158447,681.010254 
	C972.860657,673.592896 957.640198,666.771301 943.512024,657.183105 
	C942.264893,653.765076 942.493103,650.582642 942.894958,647.459778 
	C946.532959,619.189453 952.447571,591.411255 960.654114,564.099731 
	C970.726440,530.579163 984.976990,499.010620 1003.988037,469.607788 
	C1012.883789,455.849365 1023.822571,443.757355 1034.853882,431.737061 
	C1036.792725,429.624512 1039.594727,428.632507 1041.637451,426.092682 
	C1043.070068,424.713226 1043.977661,423.887024 1041.288818,423.813354 
	C1033.953979,423.612305 1026.644043,424.187775 1019.480042,425.506622 
	C986.964722,431.492310 957.950378,446.038513 929.892212,462.782288 
	C922.340698,467.288696 914.993652,472.137878 907.223145,476.949463 
	C905.725281,477.859283 904.271118,478.147064 902.904541,479.317078 
	C883.885193,485.621399 865.791748,493.311340 848.202637,502.033142 
	C826.290039,512.898865 804.961121,524.866882 784.753784,538.752136 
	C772.951965,546.861633 761.113647,554.906189 750.129883,564.116760 
	C747.436951,566.375000 745.379517,565.379639 743.089172,563.521423 
	C734.041321,556.180664 725.447449,548.312134 716.541809,540.805237 
	C707.507202,533.189575 698.693848,525.311768 689.734985,517.604187 
	C687.124573,515.358398 685.178711,515.328003 682.373352,517.471924 
	C670.075378,526.870483 657.636780,536.085266 645.491394,545.684387 
	C644.576111,546.407776 643.638123,547.097534 642.675537,547.755554 
	C636.989502,551.642578 636.336609,551.573059 631.286072,546.607361 
	C619.304810,534.827515 607.845093,522.526978 595.668457,510.941498 
	C593.977661,509.332794 592.286316,507.666687 592.548706,504.990021 
	C594.154846,488.606567 595.956299,472.252350 599.846069,455.836304 
	C601.704041,453.024658 603.455872,450.566620 605.479736,447.915771 
	C614.806763,439.886017 624.234680,432.527588 634.187744,425.865540 
	C658.955200,409.287506 685.118713,395.726501 714.114136,387.954926 
	C733.394348,382.787323 752.844238,380.356781 772.838257,380.393677 
	C787.596680,380.420868 802.381653,378.823944 817.146423,377.902466 
	C832.139648,376.966705 846.965393,374.979523 861.796753,373.002655 
	C882.922058,370.186920 903.840332,366.279022 924.298706,360.004303 
	C942.849243,354.314667 960.763855,347.396637 977.324646,337.128540 
	C986.097107,331.689331 993.493042,324.901123 999.723938,316.258606 
	C1000.565369,315.470947 1001.287659,315.066803 1002.330933,314.651306 
	C1002.651855,314.639984 1003.105896,314.743286 1003.159790,314.969788 
	C999.372681,328.485077 992.473145,340.197906 984.187317,351.087860 
	C974.666992,363.600372 962.771912,373.257690 947.117004,379.670624 
	C952.295471,380.406799 956.401489,379.566742 960.528320,379.235474 
	C964.838928,378.889496 969.174866,378.856232 973.484253,378.499146 
	C991.351318,377.018524 1009.212585,375.467163 1027.531738,373.942444 
	C1028.540283,373.978333 1029.082886,373.934479 1029.866089,373.650177 
	C1030.517944,373.486969 1030.910400,373.414001 1031.602539,373.378601 
	C1034.507812,374.685333 1037.142700,373.434052 1039.764404,373.480194 
	C1064.151855,373.909546 1088.520142,374.814606 1112.868774,376.248016 
	C1115.860962,376.424103 1118.843384,376.504303 1122.261963,375.932434 
	C1127.717773,375.426483 1132.734497,375.602966 1138.168213,375.688782 
	C1139.647461,375.867615 1140.687378,376.219849 1142.166504,375.964722 
	C1147.289917,374.848877 1152.078247,374.584473 1156.924438,374.596954 
	C1171.929443,374.635651 1186.770020,372.992798 1201.450073,369.887329 
	C1203.038818,369.551239 1204.875000,368.638062 1206.105347,370.228760 
	C1207.280884,371.748444 1206.280762,373.464508 1205.517334,374.911285 
	C1195.114380,394.623108 1184.587036,414.263763 1171.072754,432.100891 
	C1169.060181,434.757202 1166.237793,436.675903 1164.053589,439.697815 
	C1161.594360,441.518738 1160.350098,443.465149 1159.300781,446.127838 
	C1156.933594,452.134735 1152.756592,457.245667 1149.438477,462.795868 
	C1143.903320,472.054382 1137.661255,480.877258 1132.147461,490.559601 
z"/>
<path fill="#424242" opacity="1.000000" stroke="none" 
	d="
M606.299683,647.435059 
	C620.067444,622.487915 641.394226,607.102722 666.714172,596.383667 
	C669.078003,595.382996 671.099915,595.472290 673.395020,596.002991 
	C698.427917,601.791077 722.406250,610.693542 745.855774,621.003357 
	C770.075317,631.651672 793.479797,643.920837 815.988525,657.864441 
	C840.312927,672.932617 863.500183,689.576782 885.486694,707.888977 
	C890.721130,712.248718 895.793396,716.811646 901.153870,721.008301 
	C904.048157,723.274231 904.691650,725.095581 902.534668,728.447754 
	C886.252502,753.751404 870.158325,779.175964 854.004944,804.562500 
	C849.722107,811.293335 845.207214,817.890076 841.221619,824.792480 
	C837.514709,831.212280 832.744080,835.931946 825.745422,838.826660 
	C806.583069,846.752197 787.177979,851.324402 766.581238,845.049133 
	C765.070496,844.588806 762.835144,844.693726 762.467957,842.894348 
	C762.123230,841.204529 764.336609,840.838135 765.424866,839.917603 
	C787.849243,820.950867 805.223511,798.408325 814.033203,770.049255 
	C820.795654,748.280273 821.218384,726.258667 815.251160,704.174194 
	C814.846313,702.675964 814.486938,701.479858 813.024292,700.561584 
	C793.308899,688.183289 771.767761,680.794434 748.895569,677.117615 
	C743.008118,676.171143 737.045410,675.393311 731.094910,675.187683 
	C698.327820,674.055786 667.515442,681.626404 638.312195,696.325500 
	C626.690308,702.175171 615.781494,709.163391 605.056763,716.458679 
	C601.560486,718.836975 599.944702,718.272949 598.874390,714.116760 
	C595.333374,700.367188 595.196899,686.573669 597.575500,672.650452 
	C599.074890,663.873901 602.487061,655.787231 606.299683,647.435059 
z"/>
<path fill="#C0BFBF" opacity="1.000000" stroke="none" 
	d="
M943.670898,656.613892 
	C958.440613,664.632568 972.939453,672.373291 987.753052,680.306274 
	C986.309448,684.017639 982.387756,683.430542 979.709717,684.950500 
	C984.314575,685.848267 988.921387,687.213928 993.543152,688.516907 
	C998.238831,689.840759 999.052063,692.058960 995.950378,695.990112 
	C993.177795,699.504028 990.039612,702.733276 987.036255,706.053528 
	C982.810242,710.725647 978.268372,715.115906 973.924072,720.134216 
	C973.156677,720.743713 972.692017,721.204346 971.781006,721.544617 
	C971.116150,721.765503 971.144653,722.088684 971.041321,722.229858 
	C970.651306,722.762451 971.782471,722.248169 971.130310,722.386475 
	C971.127930,722.386963 971.093018,722.239868 971.288391,721.782776 
	C972.189209,721.486755 972.748718,721.204712 973.479858,720.534546 
	C979.300293,717.263000 984.342773,713.193970 991.002075,711.918579 
	C991.990479,713.474060 991.521362,714.748474 990.905334,715.914612 
	C982.963501,730.948486 974.850952,745.888489 965.798218,760.378113 
	C965.446411,760.254944 965.384216,760.410339 965.357910,760.489868 
	C965.641907,761.454468 964.793213,761.439941 964.238770,762.036743 
	C955.850708,769.134460 946.323303,773.913391 937.065552,779.077332 
	C923.275024,786.769653 909.083313,793.648865 893.996277,798.496887 
	C892.779846,798.887756 891.495483,799.067139 889.110718,799.595703 
	C893.667725,792.268127 897.645935,785.849487 901.645264,779.444153 
	C915.897461,756.618042 930.104370,733.763184 944.481384,711.015930 
	C946.236267,708.239319 946.211731,707.328186 943.096375,705.608704 
	C914.023621,689.562561 885.082947,673.277161 856.127075,657.019897 
	C854.954407,656.361572 853.117371,656.079590 853.419006,653.861755 
	C855.612793,653.000916 857.119202,654.829529 858.880676,655.404724 
	C863.884277,657.038940 866.192261,655.824219 868.009827,650.973145 
	C871.231567,642.374207 870.485779,633.253906 871.742493,624.408203 
	C874.693665,603.637085 881.094421,584.070557 890.482544,565.397644 
	C907.493835,531.562256 932.029419,503.843658 960.590515,479.450256 
	C970.938843,470.611969 981.510437,462.023376 993.478882,454.767792 
	C995.664673,456.900360 993.773987,458.445740 992.695984,459.922089 
	C983.471741,472.555817 974.831665,485.570801 966.922729,499.066345 
	C947.475525,532.250366 931.335388,566.731201 924.824585,605.078247 
	C922.998047,615.835693 923.412720,626.614075 923.415039,637.410889 
	C923.416260,643.202759 925.996704,647.027405 931.505981,649.249939 
	C935.780457,650.974304 940.095947,652.871643 943.670898,656.613892 
z"/>
<path fill="#810001" opacity="1.000000" stroke="none" 
	d="
M965.775757,760.502258 
	C970.914917,748.420959 977.864136,737.386963 983.999390,725.913330 
	C986.333618,721.548035 988.636597,717.166016 990.981934,712.432983 
	C991.291321,710.164062 992.825928,709.397217 994.255066,708.556519 
	C1023.895020,691.121399 1051.477051,670.896362 1077.007935,647.846436 
	C1099.789062,627.278992 1120.849487,605.151184 1139.081299,580.407471 
	C1146.879150,569.824280 1154.403564,559.056946 1160.962402,547.648743 
	C1161.724365,546.323425 1162.830444,545.317871 1163.849854,543.779846 
	C1163.822144,542.398743 1164.205811,541.539917 1164.833130,540.695435 
	C1174.807373,527.269348 1180.666504,511.712555 1187.470093,496.657715 
	C1188.744019,493.838348 1189.133179,490.619202 1189.968140,487.182983 
	C1206.341797,482.432983 1223.054077,479.835510 1239.534302,476.151031 
	C1250.538330,473.690826 1261.613770,471.550232 1272.660522,469.282623 
	C1273.603271,469.089081 1274.603394,468.732971 1275.825806,469.968994 
	C1272.907593,473.408295 1270.024170,476.955475 1266.984863,480.363770 
	C1249.938354,499.479797 1232.888794,518.590149 1215.420654,537.328308 
	C1191.351562,563.147095 1166.983643,588.673523 1141.844849,613.450989 
	C1116.847900,638.088562 1091.301025,662.157654 1064.901855,685.285583 
	C1039.765869,707.306763 1013.903503,728.459717 986.520020,747.673279 
	C979.903625,752.315735 973.737549,757.684631 965.775757,760.502258 
z"/>
<path fill="#D5D4D4" opacity="1.000000" stroke="none" 
	d="
M599.672974,455.707947 
	C598.468506,466.330231 596.968262,477.175537 595.507690,488.026184 
	C594.734131,493.772675 594.114075,499.541260 593.246582,505.272858 
	C592.952881,507.213196 594.301025,507.985504 595.277954,508.971680 
	C608.366089,522.183960 621.549133,535.302673 634.567078,548.583374 
	C636.408752,550.462280 637.392334,550.351501 639.350952,548.845154 
	C653.712830,537.799744 668.248840,526.979675 682.554626,515.863098 
	C685.231018,513.783386 686.619507,513.361328 689.450562,515.850891 
	C707.172546,531.434753 725.199463,546.671570 742.954651,562.218262 
	C745.840698,564.745300 747.382874,565.009338 750.602112,562.428589 
	C774.239380,543.480164 799.512634,526.964294 826.094788,512.413452 
	C846.201965,501.406982 866.896057,491.703827 888.268982,483.443329 
	C892.898132,481.654175 897.618591,480.101318 902.694702,478.311890 
	C903.184265,478.464417 903.276123,478.744751 903.173706,479.422607 
	C884.643127,491.549805 866.251099,503.207642 848.622986,515.987732 
	C819.082825,537.403870 790.373901,559.800537 766.958496,588.153687 
	C764.216614,591.473755 761.492310,594.889771 759.361694,598.606323 
	C757.780457,601.364502 756.535583,601.554199 753.932800,600.085449 
	C732.676147,588.089905 711.317383,576.275269 690.065735,564.270996 
	C677.528748,557.189270 677.602356,557.104980 664.491028,562.906860 
	C654.934082,567.135986 645.234497,571.062195 635.822510,575.589355 
	C632.438416,577.217041 630.495056,576.452576 628.073608,574.205200 
	C613.320007,560.512390 598.476379,546.916565 583.661804,533.289490 
	C578.521423,528.561157 573.463684,523.737244 568.189270,519.163330 
	C566.353455,517.571350 566.108337,516.297974 566.976990,514.078735 
	C575.142578,493.216400 585.783264,473.751526 599.672974,455.707947 
z"/>
<path fill="#7C2C28" opacity="1.000000" stroke="none" 
	d="
M778.202026,780.196350 
	C772.183594,796.979675 761.121582,809.315491 747.305542,819.455322 
	C745.034729,821.122009 742.643372,822.625183 740.297119,824.188110 
	C737.944214,825.755310 736.662048,825.055908 736.161682,822.326782 
	C731.797485,798.521484 727.340393,774.732910 723.107239,750.904419 
	C722.611694,748.115234 721.388428,746.789917 718.893982,746.160461 
	C699.911133,741.370972 680.929993,736.575012 661.948975,731.778442 
	C661.626770,731.697021 661.296448,731.617310 660.997925,731.477112 
	C659.400024,730.726807 656.616516,731.047791 656.406799,729.155457 
	C656.144775,726.791138 659.024902,726.514404 660.704346,725.775513 
	C674.167969,719.851746 688.178101,716.343506 702.897278,714.845276 
	C727.559937,712.335083 751.524719,716.052795 775.412781,721.304626 
	C777.531799,721.770447 779.722534,721.991821 780.527405,725.045959 
	C785.408264,743.565796 785.284912,761.812927 778.202026,780.196350 
z"/>
<path fill="#D70001" opacity="1.000000" stroke="none" 
	d="
M999.499390,315.959473 
	C1001.671875,317.191437 1000.173218,318.046539 999.444336,319.077515 
	C992.155029,329.387634 981.942566,336.112946 971.280090,342.376556 
	C957.775879,350.309479 943.217041,355.944000 928.403870,360.464417 
	C904.863281,367.648163 880.684326,372.164917 856.195251,375.179352 
	C838.941956,377.303131 821.693665,379.022705 804.348083,380.143463 
	C789.942261,381.074249 775.555969,381.964844 761.115845,382.019684 
	C742.898193,382.088867 725.464844,386.416351 708.009583,391.263489 
	C692.287720,395.629242 677.558533,402.243225 663.305786,409.733154 
	C653.005127,415.146240 642.788818,421.024750 633.389160,428.087555 
	C624.367371,434.866425 615.228516,441.489441 605.946411,447.951965 
	C629.560730,418.344788 658.702759,395.979980 693.448181,380.958740 
	C717.126587,370.722015 741.786499,364.437744 767.469421,361.906464 
	C777.583496,360.909637 787.682312,360.201599 797.839905,360.078064 
	C830.834290,359.676819 863.546570,356.586151 896.014282,350.498840 
	C922.734436,345.489105 948.759155,338.304321 973.927429,328.029724 
	C982.560608,324.505371 990.877563,320.315460 999.499390,315.959473 
z"/>
<path fill="#820101" opacity="1.000000" stroke="none" 
	d="
M943.956665,656.439819 
	C937.754944,653.757019 931.529175,650.695923 925.394836,647.461487 
	C921.360596,645.334351 922.382263,641.008789 922.143921,637.731140 
	C920.806641,619.346130 923.075012,601.295593 927.983154,583.524902 
	C938.572876,545.182495 957.027588,510.622375 978.693054,477.600739 
	C983.599243,470.122925 988.771301,462.819641 993.823242,455.061951 
	C1003.287903,446.559601 1014.342834,440.880371 1024.972046,434.565247 
	C1030.222656,431.445709 1035.750122,428.791809 1041.499390,425.845520 
	C1042.057739,427.048676 1041.511963,428.031555 1040.588745,428.846985 
	C1021.987183,445.274323 1007.402161,464.963226 995.268005,486.389832 
	C984.257507,505.832275 974.971069,526.081238 967.646423,547.338806 
	C963.059998,560.649780 959.020447,574.098083 955.526733,587.644897 
	C951.202576,604.412048 947.255371,621.346741 945.822815,638.748291 
	C945.350464,644.485413 943.569519,650.122559 943.956665,656.439819 
z"/>
<path fill="#7F0101" opacity="1.000000" stroke="none" 
	d="
M1123.216187,376.887146 
	C1119.333862,378.996368 1115.379395,378.291168 1111.786865,377.733337 
	C1107.640137,377.089417 1103.552246,377.116058 1099.430176,376.987549 
	C1077.764771,376.312103 1056.098877,375.656677 1034.434570,374.946960 
	C1033.689697,374.922546 1032.961182,374.395782 1032.063721,373.759674 
	C1046.836304,371.332733 1061.786621,369.357971 1076.700684,367.139435 
	C1097.197144,364.090485 1117.599976,360.570129 1137.916748,356.390778 
	C1171.469116,349.488708 1204.465332,340.852966 1236.285156,328.055603 
	C1247.238770,323.650269 1257.932129,318.674896 1268.092773,312.610077 
	C1269.354614,311.856903 1270.826294,311.454865 1272.622925,310.963837 
	C1267.884888,321.681091 1260.646240,331.035400 1254.187378,340.845947 
	C1244.323364,355.828644 1233.877930,370.437744 1223.404541,385.007996 
	C1205.348022,410.127930 1186.504761,434.636383 1165.840332,457.702606 
	C1155.399414,469.357025 1144.645874,480.678619 1132.219727,490.728821 
	C1131.723755,486.059723 1135.345459,483.052795 1137.465942,479.479797 
	C1143.681152,469.007507 1150.422729,458.847473 1156.959351,448.566040 
	C1157.827026,447.201233 1159.129517,445.982178 1158.545654,444.114746 
	C1157.610474,441.123047 1160.370850,441.145569 1162.126953,440.046875 
	C1178.929199,426.919769 1191.664551,410.528198 1203.182617,393.164551 
	C1211.915405,379.999847 1219.975464,366.396973 1227.309082,352.387390 
	C1228.205566,350.674805 1229.490845,349.025757 1229.219604,346.243408 
	C1195.602295,362.631409 1160.678955,373.682892 1123.216187,376.887146 
z"/>
<path fill="#EABA02" opacity="1.000000" stroke="none" 
	d="
M846.192871,612.788086 
	C836.090698,618.890259 826.270081,618.154785 816.017639,613.635986 
	C805.404724,608.958313 794.480774,604.982361 783.661987,600.778809 
	C780.587646,599.584229 781.790771,598.559875 783.461670,597.112915 
	C800.160095,582.652710 816.821289,568.149597 834.466248,552.812561 
	C831.172058,560.504150 829.296143,567.312988 830.010620,575.088562 
	C833.783813,571.864380 834.720459,567.301453 837.388428,563.821777 
	C849.246033,548.356567 864.799255,537.264526 880.512939,526.372986 
	C891.155457,518.996399 902.281921,512.333313 913.637756,506.083099 
	C914.478149,505.620575 915.246887,504.851135 916.718079,505.291901 
	C916.619385,507.180939 916.297058,509.052338 914.745361,510.438843 
	C899.688904,523.892883 890.150452,541.272400 880.629089,558.620667 
	C869.587830,578.738220 860.222290,599.667603 851.671936,620.940979 
	C849.753357,625.714478 847.762085,627.112854 843.342163,624.220703 
	C842.253906,623.508606 840.891846,623.215027 839.343811,622.606506 
	C841.603455,619.956787 844.973206,618.574402 846.813354,615.252563 
	C847.931580,614.026978 847.283630,612.544312 848.236145,611.314270 
	C848.061096,610.621094 849.286621,610.790833 848.579163,610.492065 
	C848.051270,611.644958 847.514893,612.426941 846.192871,612.788086 
z"/>
<path fill="#D5A802" opacity="1.000000" stroke="none" 
	d="
M581.508911,563.489990 
	C589.861328,571.356873 597.896179,579.048218 606.093445,586.562378 
	C608.353882,588.634460 608.809265,589.838013 606.278442,592.242737 
	C600.749390,597.496399 595.407776,602.992554 590.452454,608.785461 
	C588.033691,611.613098 586.938843,611.030090 584.836182,608.696838 
	C573.093201,595.666382 570.245300,580.063721 571.689026,563.306030 
	C571.885681,561.023682 570.684814,557.347351 573.084229,556.577087 
	C575.201477,555.897461 576.664062,559.499817 578.689026,560.886169 
	C579.637756,561.535767 580.403809,562.452087 581.508911,563.489990 
z"/>
<path fill="#919191" opacity="1.000000" stroke="none" 
	d="
M851.238770,653.751831 
	C844.237549,650.398682 837.467285,646.812805 830.696960,643.226929 
	C830.886475,642.848755 831.076050,642.470520 831.265564,642.092346 
	C838.536804,644.467773 844.913757,648.868530 852.069580,652.153442 
	C851.991882,652.818176 851.739990,653.175110 851.238770,653.751831 
z"/>
<path fill="#644C02" opacity="1.000000" stroke="none" 
	d="
M846.194336,613.055542 
	C846.754395,612.000977 847.585815,611.092712 848.686157,610.070190 
	C849.533691,611.819885 848.474670,613.125610 847.187500,614.689148 
	C846.786316,614.362305 846.626038,613.782104 846.194336,613.055542 
z"/>
<path fill="#A88986" opacity="1.000000" stroke="none" 
	d="
M903.276306,479.741089 
	C902.967590,479.545380 902.955872,479.270660 903.018311,478.589996 
	C904.032104,477.440887 905.034607,476.875671 906.596191,477.060974 
	C905.786743,477.933472 904.680054,478.797791 903.276306,479.741089 
z"/>
<path fill="#7F0101" opacity="1.000000" stroke="none" 
	d="
M1029.846313,373.440430 
	C1029.762329,374.415314 1029.323853,375.100281 1028.126221,374.163849 
	C1028.514160,373.735687 1029.040771,373.528290 1029.846313,373.440430 
z"/>
<path fill="#919191" opacity="1.000000" stroke="none" 
	d="
M824.784851,639.140015 
	C825.989929,639.379089 826.992920,639.889587 828.000122,640.692383 
	C827.228821,640.702271 826.453186,640.419861 825.399353,639.979431 
	C824.941650,639.684814 824.762207,639.548096 824.784851,639.140015 
z"/>
<path fill="#555555" opacity="1.000000" stroke="none" 
	d="
M824.866943,638.593079 
	C824.987000,638.868652 825.110474,639.337280 825.115845,639.579346 
	C824.438293,639.418457 823.755493,639.015442 823.035522,638.307434 
	C823.581177,638.107483 824.164001,638.212524 824.866943,638.593079 
z"/>
<path fill="#810001" opacity="1.000000" stroke="none" 
	d="
M964.419067,762.200317 
	C964.322571,761.783997 964.563049,761.269836 965.067566,760.662537 
	C965.909729,761.369446 965.462585,761.784668 964.419067,762.200317 
z"/>
<path fill="#919191" opacity="1.000000" stroke="none" 
	d="
M827.956177,641.059692 
	C828.523743,640.608582 829.123352,640.703735 829.646484,641.138184 
	C829.771240,641.241760 829.655518,641.634949 829.650391,641.894897 
	C829.201660,641.803955 828.752869,641.713013 828.154297,641.303406 
	C828.004456,640.984741 827.972351,641.034790 827.956177,641.059692 
z"/>
<path fill="#555555" opacity="1.000000" stroke="none" 
	d="
M823.002869,637.996704 
	C822.422424,638.113098 821.816467,638.299255 821.546570,637.497192 
	C821.943054,637.500183 822.339539,637.503174 822.867188,637.754333 
	C822.998352,638.002502 823.000000,637.999939 823.002869,637.996704 
z"/>
<path fill="#C0BFBF" opacity="1.000000" stroke="none" 
	d="
M851.540466,654.151001 
	C851.244019,653.618347 851.480286,653.252136 851.971008,652.667114 
	C852.790100,653.121582 852.736145,653.744385 851.540466,654.151001 
z"/>
<path fill="#AE0000" opacity="1.000000" stroke="none" 
	d="
M1002.790771,314.780609 
	C1003.087158,314.314514 1003.597778,313.764374 1003.372681,315.065552 
	C1003.213623,315.196259 1002.929688,314.921234 1002.790771,314.780609 
z"/>
<path fill="#7F0101" opacity="1.000000" stroke="none" 
	d="
M1272.968262,310.963257 
	C1273.075317,310.739716 1273.206665,310.542358 1273.338013,310.345032 
	C1273.358276,310.530029 1273.378540,310.715057 1273.222046,310.968811 
	C1273.045166,311.037567 1272.992554,310.989441 1272.968262,310.963257 
z"/>
<path fill="#050202" opacity="1.000000" stroke="none" 
	d="
M1163.675293,543.617615 
	C1159.414551,554.619019 1152.167236,564.170288 1145.310303,573.924622 
	C1127.255493,599.608765 1106.182739,622.658081 1083.238525,644.019104 
	C1068.017212,658.190247 1051.776367,671.128235 1034.986938,683.391052 
	C1021.015869,693.595337 1006.477295,702.919495 991.288940,711.876709 
	C985.353088,715.118652 979.696228,718.163025 973.693970,721.283325 
	C973.074402,721.290100 972.800110,721.220886 972.361389,720.760498 
	C979.828247,711.866638 987.427551,703.334778 995.110107,694.878540 
	C997.477478,692.272766 998.816223,690.763062 993.677124,689.891357 
	C987.879883,688.907898 982.270203,686.818665 975.268677,684.840027 
	C980.232544,683.225281 983.865906,682.043335 987.783569,680.679932 
	C1006.017090,674.708252 1022.790833,666.411194 1038.843506,656.600342 
	C1075.431396,634.239197 1107.073242,605.941040 1136.315918,574.847107 
	C1145.050171,565.560059 1153.901367,556.304871 1161.088013,545.666870 
	C1161.616089,544.885254 1162.583374,544.400452 1163.675293,543.617615 
z"/>
<path fill="#080101" opacity="1.000000" stroke="none" 
	d="
M680.446533,455.481995 
	C695.718445,432.929840 717.527771,420.265137 742.305725,411.832092 
	C750.960083,408.886627 759.822510,406.780670 768.938904,405.466156 
	C750.514404,412.587189 732.940613,420.967590 719.866516,436.620697 
	C757.278503,426.525726 794.942505,418.993561 833.605347,417.150940 
	C778.885864,429.854065 724.004639,441.989105 673.838989,470.903717 
	C674.866455,464.982574 677.561157,460.383911 680.446533,455.481995 
z"/>
<path fill="#060101" opacity="1.000000" stroke="none" 
	d="
M1123.429199,377.115387 
	C1129.617676,374.457153 1136.807251,374.399933 1143.736816,373.089813 
	C1167.475464,368.601685 1190.523315,361.823364 1212.866211,352.709808 
	C1219.093140,350.169891 1224.671509,346.111237 1231.922974,343.869934 
	C1230.057861,352.086792 1225.590088,358.324829 1221.908325,364.855804 
	C1210.802734,384.555359 1198.840088,403.712921 1183.990723,420.876373 
	C1177.812256,428.017792 1171.518799,435.105988 1162.841431,440.001160 
	C1181.076782,419.501282 1193.373291,395.039520 1206.793457,369.738312 
	C1185.114502,375.870575 1163.917358,375.599335 1142.440918,376.868469 
	C1141.566284,376.931183 1141.120605,376.969360 1140.339111,377.015808 
	C1134.635864,377.048035 1129.267578,377.062927 1123.429199,377.115387 
z"/>
<path fill="#720102" opacity="1.000000" stroke="none" 
	d="
M1140.165405,377.244995 
	C1140.413208,376.381378 1140.940430,376.109802 1141.844238,376.698792 
	C1141.630737,377.607452 1141.122681,377.955261 1140.165405,377.244995 
z"/>
<path fill="#020202" opacity="1.000000" stroke="none" 
	d="
M605.166931,674.370422 
	C610.678101,655.548218 620.228088,639.394531 632.753357,623.311523 
	C632.584839,629.422546 629.936890,633.219421 627.777649,637.054749 
	C623.737732,644.230774 621.027466,651.889343 619.319641,659.840698 
	C616.815063,671.501831 618.791504,682.261536 627.627686,691.390259 
	C623.583130,693.379883 619.373352,694.159363 615.661255,696.347351 
	C611.882324,698.574829 609.034607,701.780762 605.356873,704.809875 
	C601.361511,694.518799 603.123352,684.650452 605.166931,674.370422 
z"/>
<path fill="#050202" opacity="1.000000" stroke="none" 
	d="
M973.069092,721.102173 
	C972.908386,721.684143 972.468079,722.008911 971.760559,722.420166 
	C971.493347,722.506592 971.080994,722.354919 971.008118,722.147644 
	C971.211548,721.519775 971.487854,721.099243 971.980530,720.524048 
	C972.394409,720.527832 972.591919,720.686340 973.069092,721.102173 
z"/>
<path fill="#050202" opacity="1.000000" stroke="none" 
	d="
M971.357666,722.361206 
	C971.121521,722.588684 970.749695,722.670776 970.377869,722.752869 
	C970.390015,722.525024 970.402100,722.297241 970.674683,722.004883 
	C970.935242,721.940369 971.222046,722.215820 971.357666,722.361206 
z"/>
<path fill="#644C02" opacity="1.000000" stroke="none" 
	d="
M849.006958,610.012207 
	C849.150085,609.826294 849.276917,609.620850 849.403687,609.415405 
	C849.382385,609.611755 849.361145,609.808167 849.147461,609.980286 
	C848.955139,609.955994 848.990601,609.992615 849.006958,610.012207 
z"/>
<path fill="#AE0000" opacity="1.000000" stroke="none" 
	d="
M718.504333,437.329163 
	C718.634277,437.238892 718.706787,437.572876 718.706787,437.572876 
	C718.706787,437.572876 718.374390,437.419464 718.504333,437.329163 
z"/>
</svg>